{"title":"Bored to Death Season 1 RUS ProjektorShow","uid":9220641,"size":2041802752,"categoryP":"video","categoryS":"tv_shows","magnet":"?xt=urn:btih:574711dffb32e606f8ba12c5b0c4e39b75495ee4&amp;dn=Bored+to+Death+Season+1+RUS+ProjektorShow+&amp;tr=udp%3A%2F%2Ftracker.openbittorrent.com%3A80&amp;tr=udp%3A%2F%2Fopen.demonii.com%3A1337&amp;tr=udp%3A%2F%2Ftracker.coppersurfer.tk%3A6969&amp;tr=udp%3A%2F%2Fexodus.desync.com%3A6969","seeders":1,"leechers":0,"uploader":"LagartiaNick","files":8,"time":1384927538,"description":"General\nComplete name                            : D:\nFormat                                   : AVI\nFormat/Info                              : Audio Video Interleave\nFile size                                : 245 MiB\nDuration                                 : 29mn 5s\nOverall bit rate                         : 1 177 Kbps\nWriting application                      : VirtualDubMod 1.5.10.2 (build 2540/release)\nWriting library                          : VirtualDubMod build 2540/release\n\nVideo\nID                                       : 0\nFormat                                   : MPEG-4 Visual\nFormat profile                           : Advanced Simple@L5\nFormat settings, BVOP                    : 2\nFormat settings, QPel                    : No\nFormat settings, GMC                     : No warppoints\nFormat settings, Matrix                  : Default (H.263)\nMuxing mode                              : Packed bitstream\nCodec ID                                 : XVID\nCodec ID/Hint                            : XviD\nDuration                                 : 29mn 5s\nBit rate                                 : 976 Kbps\nWidth                                    : 624 pixels\nHeight                                   : 352 pixels\nDisplay aspect ratio                     : 16:9\nFrame rate                               : 23.976 fps\nColor space                              : YUV\nChroma subsampling                       : 4:2:0\nBit depth                                : 8 bits\nScan type                                : Progressive\nCompression mode                         : Lossy\nBits/(Pixel*Frame)                       : 0.185\nStream size                              : 203 MiB (83%)\nWriting library                          : XviD 1.2.1 (UTC 2008-12-04)\n\nAudio\nID                                       : 1\nFormat                                   : MPEG Audio\nFormat version                           : Version 1\nFormat profile                           : Layer 3\nCodec ID                                 : 55\nCodec ID/Hint                            : MP3\nDuration                                 : 29mn 5s\nBit rate mode                            : Constant\nBit rate                                 : 192 Kbps\nChannel(s)                               : 2 channels\nSampling rate                            : 44.1 KHz\nCompression mode                         : Lossy\nDelay relative to video                  : 26ms\nStream size                              : 40.0 MiB (16%)\nAlignment                                : Split accross interleaves\nInterleave, duration                     : 42 ms (1.00 video frame)\nInterleave, preload duration             : 500 ms","torrent":{"xt":"urn:btih:574711dffb32e606f8ba12c5b0c4e39b75495ee4","amp;dn":"Bored+to+Death+Season+1+RUS+ProjektorShow+","amp;tr":["udp%3A%2F%2Ftracker.openbittorrent.com%3A80","udp%3A%2F%2Fopen.demonii.com%3A1337","udp%3A%2F%2Ftracker.coppersurfer.tk%3A6969","udp%3A%2F%2Fexodus.desync.com%3A6969"],"infoHash":"574711dffb32e606f8ba12c5b0c4e39b75495ee4","infoHashBuffer":{"type":"Buffer","data":[87,71,17,223,251,50,230,6,248,186,18,197,176,196,227,155,117,73,94,228]},"announce":[],"urlList":[]}}